# xmcd
#
# Track frame offsets:
#	150
#	18178
#	32340
#	49629
#	64753
#	84286
#	101782
#	121909
#	135255
#	150154
#	180144
#
# Disc length: 2612 seconds
#
# Revision: 0
# Processed by: cddbd v1.5.2PL0 Copyright (c) Steve Scherf et al.
# Submitted via: EZCDAudioConverter 3.0.3.2
#
DISCID=6c0a320b
DTITLE=Wayra - Música de los Andes
DYEAR=1900
DGENRE=
TTITLE0=Encuentros
TTITLE1=Sal y agua
TTITLE2=Dos aguas
TTITLE3=Raza Brava
TTITLE4=PAra ti
TTITLE5=Yamor
TTITLE6=Ocarina
TTITLE7=Amazonas
TTITLE8=Estrellita de Otavalo
TTITLE9=El condor pasa
TTITLE10=La gota fria
EXTD=
EXTT0=
EXTT1=
EXTT2=
EXTT3=
EXTT4=
EXTT5=
EXTT6=
EXTT7=
EXTT8=
EXTT9=
EXTT10=
PLAYORDER=
